<?xml version="1.0" standalone="no"?>
<!DOCTYPE svg PUBLIC "-//W3C//DTD SVG 20010904//EN"
 "http://www.w3.org/TR/2001/REC-SVG-20010904/DTD/svg10.dtd">
<svg version="1.0" xmlns="http://www.w3.org/2000/svg"
 width="700.000000pt" height="700.000000pt" viewBox="0 0 700.000000 700.000000"
 preserveAspectRatio="xMidYMid meet">
<metadata>
Created by potrace 1.14, written by Peter Selinger 2001-2017
</metadata>
<g transform="translate(0.000000,700.000000) scale(0.100000,-0.100000)"
fill="#000000" stroke="none">
<path d="M454 5948 c-16 -52 -20 -308 -5 -386 29 -149 53 -216 139 -391 119
-244 304 -487 566 -745 361 -356 789 -635 1196 -781 244 -87 292 -108 350
-152 98 -73 140 -150 182 -326 15 -65 22 -127 22 -212 1 -111 -1 -124 -26
-176 -33 -67 -109 -145 -217 -223 -132 -95 -232 -140 -333 -150 -93 -10 -138
-51 -138 -126 0 -53 7 -65 40 -78 39 -15 144 16 392 119 267 109 365 141 433
138 85 -4 150 -44 315 -198 147 -137 166 -152 246 -204 121 -79 182 -79 168
-2 -10 60 -80 163 -215 317 -267 304 -440 720 -363 871 8 15 23 27 34 28 52 3
68 2 100 -6 233 -52 643 -272 1023 -547 327 -237 473 -327 568 -352 47 -12 56
-12 71 1 9 8 14 22 11 31 -49 152 -347 455 -700 710 -414 301 -888 550 -1473
777 -446 172 -763 337 -879 456 -78 80 -84 121 -20 135 30 7 175 6 254 -1 33
-3 89 -7 125 -10 100 -9 390 -52 540 -80 74 -14 146 -28 160 -30 52 -9 260
-58 410 -95 85 -22 169 -41 185 -44 27 -4 79 -12 145 -23 71 -12 311 -10 380
2 85 15 236 61 263 80 39 27 -35 50 -268 81 -27 3 -58 8 -69 10 -10 2 -44 6
-75 9 -188 21 -450 76 -623 131 -148 47 -272 130 -261 175 9 33 71 76 210 144
73 36 135 65 138 65 2 0 64 28 137 63 73 35 169 80 213 101 44 20 103 48 130
61 l50 23 -215 1 c-118 0 -246 -4 -285 -10 -67 -9 -83 -12 -148 -24 -62 -12
-235 -74 -282 -102 -95 -56 -339 -133 -495 -157 -19 -3 -57 -10 -85 -15 -27
-5 -68 -12 -90 -15 -23 -4 -51 -8 -64 -11 -12 -2 -50 -7 -84 -10 -34 -3 -73
-8 -87 -10 -14 -2 -61 -7 -105 -10 -161 -12 -181 -14 -255 -20 -41 -3 -97 -7
-125 -9 -158 -12 -241 -19 -245 -22 -12 -6 -32 20 -185 241 -193 280 -465 668
-554 790 -144 198 -208 252 -227 193z"/>
<path d="M4175 5902 c-111 -37 -154 -139 -101 -244 38 -78 96 -139 189 -202
46 -30 90 -62 97 -70 24 -29 3 -60 -77 -111 -97 -62 -151 -118 -193 -196 -37
-70 -50 -160 -30 -208 26 -64 119 -75 183 -22 40 32 55 51 92 120 40 73 96
104 189 103 36 0 69 -3 75 -6 5 -3 34 -9 64 -12 114 -13 176 62 128 153 -27
51 -47 72 -103 112 -74 53 -76 90 -5 136 83 54 110 112 88 186 -17 55 -66 109
-100 109 -33 0 -84 -27 -159 -84 -31 -24 -67 -47 -78 -50 -29 -9 -54 17 -55
57 -5 108 -14 139 -55 181 -43 45 -101 63 -149 48z"/>
<path d="M3860 5489 c-46 -26 -80 -77 -87 -129 -5 -33 -2 -45 17 -65 43 -46
159 -59 259 -29 135 40 135 145 0 213 -75 37 -137 41 -189 10z"/>
<path d="M5065 5002 c-124 -55 -189 -110 -190 -161 -1 -37 35 -113 90 -186
106 -144 156 -180 204 -149 36 25 57 51 87 114 62 128 25 359 -64 399 -35 17
-61 13 -127 -17z"/>
<path d="M5654 4904 c-76 -25 -174 -167 -235 -339 -30 -85 -37 -233 -14 -310
24 -83 47 -125 98 -178 51 -52 118 -89 198 -109 125 -33 198 12 205 126 6 103
-57 189 -179 245 -34 15 -70 37 -80 49 -18 20 -18 22 -1 51 10 17 21 31 24 31
3 0 21 14 40 31 19 17 49 42 67 56 48 37 94 115 98 165 3 50 -3 65 -52 119
-59 65 -109 84 -169 63z"/>
<path d="M4754 4474 c-148 -30 -185 -101 -139 -261 24 -80 52 -107 115 -109
154 -5 387 160 363 257 -22 90 -187 145 -339 113z"/>
<path d="M5191 4144 c-41 -17 -104 -81 -132 -134 -20 -38 -23 -60 -24 -140 0
-84 3 -102 27 -151 40 -81 67 -103 131 -103 83 -1 128 44 153 154 16 65 12
228 -7 280 -30 87 -84 121 -148 94z"/>
<path d="M5240 2785 c-51 -23 -76 -57 -90 -125 -42 -198 96 -463 327 -627 90
-64 130 -35 183 132 29 91 36 274 15 355 -33 123 -93 208 -178 252 -56 29
-204 36 -257 13z"/>
<path d="M6257 2610 c-86 -22 -149 -53 -215 -102 -106 -79 -191 -188 -221
-284 -73 -229 133 -327 403 -192 150 75 286 209 286 282 0 39 -7 49 -47 69
-37 19 -73 62 -73 87 0 10 9 39 21 65 20 46 21 48 3 66 -27 26 -80 29 -157 9z"/>
<path d="M1810 2489 c-68 -27 -116 -103 -155 -243 -9 -32 -27 -69 -41 -83 -33
-32 -66 -27 -140 24 -134 93 -180 104 -245 60 -39 -26 -79 -81 -79 -109 0 -39
33 -89 103 -154 91 -86 157 -118 229 -109 110 13 345 150 445 259 128 140 124
279 -11 342 -56 26 -69 28 -106 13z"/>
<path d="M4883 2165 c-140 -42 -233 -157 -233 -289 0 -107 83 -171 265 -206
50 -9 215 -6 268 5 99 20 248 110 267 160 19 50 -26 108 -164 210 -158 116
-286 154 -403 120z"/>
<path d="M2039 2064 c-56 -17 -139 -88 -164 -140 -25 -53 -14 -98 33 -128 83
-55 268 -60 367 -11 134 65 126 209 -15 271 -49 21 -164 26 -221 8z"/>
<path d="M3497 1908 c-80 -48 -101 -174 -43 -272 54 -92 167 -134 220 -81 33
33 41 63 40 150 -1 163 -111 266 -217 203z"/>
<path d="M3933 1910 c-12 -5 -28 -19 -36 -32 -20 -30 -51 -168 -92 -403 -11
-63 -34 -212 -40 -255 -3 -25 -8 -56 -10 -70 -6 -30 -17 -148 -20 -210 -2 -51
12 -112 29 -122 22 -15 64 -7 123 22 99 50 139 130 107 219 -7 20 -13 53 -14
74 0 49 24 59 100 40 97 -25 144 -27 183 -8 48 22 73 64 76 125 2 58 -14 99
-74 191 -75 112 -84 155 -60 290 6 31 2 41 -24 72 -17 19 -49 44 -70 54 -43
21 -141 28 -178 13z"/>
<path d="M5900 1840 c-78 -27 -95 -48 -95 -123 0 -48 6 -74 28 -117 38 -75 58
-100 162 -206 184 -186 338 -235 436 -140 53 51 73 109 73 206 1 130 -44 212
-156 283 -152 98 -332 136 -448 97z"/>
<path d="M1408 1745 c-2 -1 -25 -5 -53 -9 -95 -11 -160 -39 -194 -82 -44 -56
-16 -133 65 -180 39 -23 59 -28 118 -28 59 0 79 4 122 27 28 16 58 40 66 55
61 103 108 73 166 -104 27 -84 57 -139 98 -182 30 -32 40 -36 77 -36 96 3 163
88 161 205 -4 200 -204 324 -541 334 -45 2 -83 1 -85 0z"/>
<path d="M5495 1711 c-109 -63 -198 -187 -229 -321 -20 -83 -13 -221 15 -295
47 -127 154 -185 271 -146 95 32 168 127 204 266 38 142 -20 408 -107 493 -42
41 -86 42 -154 3z"/>
<path d="M3527 1424 c-1 -1 -27 -4 -57 -7 -110 -10 -213 -52 -244 -99 -74
-114 42 -209 199 -163 75 21 118 49 193 125 71 71 99 115 80 126 -10 7 -165
23 -171 18z"/>
</g>
</svg>
