<?xml version="1.0" standalone="no"?>
<!DOCTYPE svg PUBLIC "-//W3C//DTD SVG 20010904//EN"
 "http://www.w3.org/TR/2001/REC-SVG-20010904/DTD/svg10.dtd">
<svg version="1.0" xmlns="http://www.w3.org/2000/svg"
 width="64.000000pt" height="64.000000pt" viewBox="0 0 64.000000 64.000000"
 preserveAspectRatio="xMidYMid meet">

<g transform="translate(0.000000,64.000000) scale(0.100000,-0.100000)"
fill="#000000" stroke="none">
<path d="M40 521 c0 -64 92 -161 181 -190 30 -9 38 -18 43 -44 5 -25 2 -36
-15 -49 -12 -10 -27 -18 -35 -18 -8 0 -14 -4 -14 -10 0 -13 4 -13 47 5 35 15
37 15 65 -12 36 -34 48 -23 15 13 -25 27 -43 71 -33 82 9 8 67 -20 114 -56 49
-37 68 -35 31 4 -37 39 -104 81 -179 109 -38 14 -74 33 -81 42 -12 13 -8 15
36 11 28 -3 71 -11 96 -18 29 -8 56 -10 75 -5 27 8 26 9 -21 15 -27 3 -59 11
-70 17 -18 11 -17 13 25 32 l45 21 -33 0 c-18 0 -43 -6 -55 -14 -12 -7 -50
-16 -85 -19 l-64 -5 -31 45 c-59 84 -56 82 -57 44z"/>
<path d="M370 525 c0 -7 8 -19 18 -25 16 -10 16 -10 0 -20 -19 -12 -25 -40 -8
-40 6 0 13 6 16 14 3 8 13 12 25 9 20 -6 26 11 8 23 -8 5 -8 9 1 14 7 4 9 13
5 19 -5 9 -10 9 -21 0 -11 -9 -14 -8 -14 5 0 9 -7 16 -15 16 -8 0 -15 -7 -15
-15z"/>
<path d="M346 494 c-4 -9 1 -14 14 -14 23 0 27 15 6 23 -8 3 -17 -1 -20 -9z"/>
<path d="M453 452 c-10 -6 -10 -12 2 -28 12 -16 16 -17 24 -5 9 14 4 41 -8 41
-3 0 -12 -4 -18 -8z"/>
<path d="M498 424 c-13 -29 -2 -57 26 -62 21 -4 22 26 1 34 -14 6 -13 8 1 19
9 6 14 17 10 23 -12 19 -26 14 -38 -14z"/>
<path d="M420 397 c0 -8 3 -17 6 -20 10 -9 46 12 39 24 -9 14 -45 11 -45 -4z"/>
<path d="M467 373 c-13 -12 -7 -43 8 -43 9 0 15 9 15 25 0 24 -10 32 -23 18z"/>
<path d="M470 235 c0 -12 9 -30 20 -40 17 -16 20 -16 26 -2 11 31 0 62 -23 63
-17 1 -23 -4 -23 -21z"/>
<path d="M546 224 c-22 -21 -20 -44 3 -44 24 0 59 32 42 38 -6 2 -9 8 -5 13 9
15 -24 10 -40 -7z"/>
<path d="M153 211 c-4 -17 -8 -19 -20 -10 -9 8 -17 9 -24 2 -7 -7 -4 -14 7
-23 13 -12 20 -12 42 1 29 16 36 39 14 47 -7 2 -16 -5 -19 -17z"/>
<path d="M435 192 c-6 -4 -11 -14 -10 -22 0 -18 44 -25 65 -10 13 9 12 12 -4
25 -22 17 -36 18 -51 7z"/>
<path d="M177 183 c-14 -13 -6 -23 16 -23 14 0 24 6 24 15 0 15 -28 21 -40 8z"/>
<path d="M315 170 c-7 -12 2 -30 16 -30 12 0 12 27 0 35 -5 3 -12 1 -16 -5z"/>
<path d="M356 172 c-2 -4 -7 -28 -11 -55 -6 -42 -5 -47 9 -41 10 4 15 13 11
21 -3 11 -1 13 10 10 19 -8 30 10 15 28 -6 8 -9 18 -6 24 3 5 -1 11 -9 15 -8
3 -16 2 -19 -2z"/>
<path d="M530 157 c0 -16 31 -47 47 -47 20 0 25 34 7 47 -23 17 -54 17 -54 0z"/>
<path d="M105 150 c-3 -6 1 -13 10 -17 10 -3 21 0 25 7 6 9 10 7 15 -9 3 -11
10 -21 15 -21 16 0 22 21 10 35 -14 17 -66 20 -75 5z"/>
<path d="M492 148 c-17 -17 -15 -55 2 -61 21 -8 39 19 32 48 -7 28 -16 31 -34
13z"/>
<path d="M295 121 c-10 -18 17 -23 33 -7 15 15 15 16 -5 16 -12 0 -24 -4 -28
-9z"/>
</g>
</svg>
