<?xml version="1.0" standalone="no"?>
<!DOCTYPE svg PUBLIC "-//W3C//DTD SVG 20010904//EN"
 "http://www.w3.org/TR/2001/REC-SVG-20010904/DTD/svg10.dtd">
<svg version="1.0" xmlns="http://www.w3.org/2000/svg"
 width="16.000000pt" height="16.000000pt" viewBox="0 0 16.000000 16.000000"
 preserveAspectRatio="xMidYMid meet">

<g transform="translate(0.000000,16.000000) scale(0.100000,-0.100000)"
fill="#000000" stroke="none">
<path d="M55 147 c-13 -10 -16 -22 -12 -43 3 -17 0 -32 -8 -39 -8 -5 -17 -22
-21 -37 l-6 -28 71 0 c64 0 71 2 71 20 0 11 -8 28 -17 38 -11 10 -17 28 -15
47 3 19 -2 33 -14 42 -22 16 -26 16 -49 0z m51 -35 c1 -18 1 -19 -3 -2 -2 12
-13 20 -24 20 -27 0 -25 -38 4 -50 17 -8 18 -9 3 -7 -24 3 -41 29 -33 51 10
26 52 17 53 -12z"/>
</g>
</svg>
